<svg xmlns="http://www.w3.org/2000/svg" viewBox="0 0 260 520" role="img" aria-label="Muxalot server list"><rect x="2" y="2" width="256" height="516" rx="34" fill="#0b0a0f" stroke="#3a3547" stroke-width="3"/><rect x="12" y="12" width="236" height="496" rx="26" fill="#121016"/><g font-family="system-ui,sans-serif" fill="#ece9f5"><text x="28" y="40" font-size="10" fill="#a29bb5">10:26</text>
<circle cx="40" cy="78" r="12" fill="#a78bfa"/><rect x="34" y="74" width="12" height="8" rx="2" fill="#121016"/>
<text x="62" y="84" font-size="17" font-weight="700">Servers</text>
<circle cx="220" cy="78" r="16" fill="#23202c"/><path d="M220 71v14M213 78h14" stroke="#ece9f5" stroke-width="2" stroke-linecap="round"/>
<rect x="24" y="112" width="212" height="58" rx="14" fill="#23202c" stroke="#3a3547"/>
<rect x="36" y="130" width="22" height="20" rx="3" fill="none" stroke="#2ecc9a" stroke-width="2"/>
<text x="68" y="136" font-size="10" font-weight="700">tty.example.com</text><text x="68" y="152" font-size="9" fill="#a29bb5">https://tty.example.com</text>
<text x="226" y="146" text-anchor="end" font-size="10" fill="#a78bfa" font-weight="600">Remove</text>
<rect x="24" y="182" width="212" height="58" rx="14" fill="#23202c" stroke="#3a3547"/>
<rect x="36" y="200" width="22" height="20" rx="3" fill="none" stroke="#2ecc9a" stroke-width="2"/>
<text x="68" y="206" font-size="10" font-weight="700">build.example.com</text><text x="68" y="222" font-size="9" fill="#a29bb5">https://build.example.com</text>
<text x="226" y="216" text-anchor="end" font-size="10" fill="#a78bfa" font-weight="600">Remove</text>
<text x="130" y="486" font-size="9" text-anchor="middle" fill="#a29bb5">Muxalot</text>
</g></svg>
