<svg xmlns="http://www.w3.org/2000/svg" viewBox="0 0 512 512" role="img" aria-label="Muxalot" fill="none" stroke="currentColor" stroke-width="24" stroke-linecap="round" stroke-linejoin="round">
  <path d="M84 250 C84 110 160 30 256 30 C352 30 428 110 428 250" stroke-width="20"/>
  <circle cx="200" cy="112" r="14" fill="currentColor" stroke="none"/><circle cx="312" cy="112" r="14" fill="currentColor" stroke="none"/>
  <rect x="128" y="158" width="256" height="182" rx="28" stroke-width="16"/>
  <path d="M170 210 L214 240 L170 270" stroke-width="20"/>
  <path d="M242 268 H298" stroke-width="20"/>
  <path d="M100 224 C64 264 62 336 100 372 C136 410 194 402 226 372"/>
  <path d="M412 224 C448 264 450 336 412 372 C376 410 318 402 286 372"/>
  <path d="M176 340 C176 400 140 424 140 486"/>
  <path d="M336 340 C336 400 372 424 372 486"/>
  <path d="M232 340 C232 400 224 440 200 476"/>
  <path d="M280 340 C280 400 288 440 312 476"/>
</svg>
